<svg xmlns="http://www.w3.org/2000/svg" data-name="Capa 1" viewBox="0 0 32 40" x="0px" y="0px"><title>iconset-doodle-camping</title><path d="M15,7.42h0a.47.47,0,0,0-.41.22A15.82,15.82,0,0,0,12,15.47l-.89.87c-.36-.46-.78-1-1.3-1.13-.7-.14-1.24.48-1.68.91s-.63.66-1,1-.51.37-.6.68c-.21.67.63,1.42,1,1.91a68.29,68.29,0,0,0-6.41,6.76.46.46,0,0,0-.07.14v0a.25.25,0,0,0,0,.07.46.46,0,0,0,.1.48A27,27,0,0,0,5.51,31,.39.39,0,0,0,6.07,31l0,0c4.06-3.46,7.52-7.58,11.59-11A11.63,11.63,0,0,0,24.13,18a.45.45,0,0,0,.18-.21l0-.07s0,0,0-.06a.24.24,0,0,0,0-.09C24.87,12.54,20.12,7.22,15,7.42Zm-2,7.81a14,14,0,0,1,1.14-4.69c4,1,7.28,3.29,7.19,7.75a11.33,11.33,0,0,1-3.52.66A5.51,5.51,0,0,0,13,15.23ZM7.58,18c0-.07.84-.76,1-.91s.77-1,1.16-.82a3,3,0,0,1,.68.72L8.32,19A4.1,4.1,0,0,1,7.58,18ZM5.73,30a27.25,27.25,0,0,1-3.52-3.18C5.36,22.9,9.14,19.68,12.7,16.21a4.49,4.49,0,0,1,4.22,3.1C13,22.62,9.63,26.57,5.73,30ZM23.39,17.29q-.51.32-1,.57c-.1-4.57-3.54-7.19-7.76-8.25.21-.4.43-.79.66-1.18C19.67,8.44,23.62,13,23.39,17.29Z"/><path d="M18.18,6.7c.5-1.9.71-3.85,1.21-5.75a.5.5,0,0,0-1-.26c-.5,1.89-.71,3.85-1.21,5.74A.5.5,0,0,0,18.18,6.7Z"/><path d="M23,9.64Q26.54,6,30.11,2.33a.5.5,0,0,0-.7-.7L22.24,8.94C21.79,9.39,22.5,10.1,23,9.64Z"/><path d="M31.28,13.45a44.08,44.08,0,0,0-5.86,0,.5.5,0,0,0,0,1,44.08,44.08,0,0,1,5.86,0C31.92,14.51,31.92,13.51,31.28,13.45Z"/><path d="M27.63,9.76l-3.17,1c-.61.2-.35,1.17.26,1l3.18-1C28.51,10.53,28.25,9.56,27.63,9.76Z"/><path d="M20.79,7.66l1.54-3.1c.29-.57-.57-1.08-.86-.5L19.93,7.15C19.64,7.73,20.51,8.23,20.79,7.66Z"/><text x="0" y="47" fill="#000000" font-size="5px" font-weight="bold" font-family="'Helvetica Neue', Helvetica, Arial-Unicode, Arial, Sans-serif">Created by Alfonso López-Sanz</text><text x="0" y="52" fill="#000000" font-size="5px" font-weight="bold" font-family="'Helvetica Neue', Helvetica, Arial-Unicode, Arial, Sans-serif">from the Noun Project</text></svg>