<?xml version="1.0" encoding="UTF-8" standalone="no"?>
<svg
   xmlns:dc="http://purl.org/dc/elements/1.1/"
   xmlns:cc="http://creativecommons.org/ns#"
   xmlns:rdf="http://www.w3.org/1999/02/22-rdf-syntax-ns#"
   xmlns:svg="http://www.w3.org/2000/svg"
   xmlns="http://www.w3.org/2000/svg"
   xmlns:sodipodi="http://sodipodi.sourceforge.net/DTD/sodipodi-0.dtd"
   xmlns:inkscape="http://www.inkscape.org/namespaces/inkscape"
   version="1.1"
   x="0px"
   y="0px"
   viewBox="0 0 79.800003 79.800003"
   xml:space="preserve"
   id="svg4"
   sodipodi:docname="noun_menu.svg"
   width="79.800003"
   height="79.800003"
   inkscape:version="0.92.4 (f8dce91, 2019-08-02)"><metadata
     id="metadata10"><rdf:RDF><cc:Work
         rdf:about=""><dc:format>image/svg+xml</dc:format><dc:type
           rdf:resource="http://purl.org/dc/dcmitype/StillImage" /><dc:title></dc:title></cc:Work></rdf:RDF></metadata><defs
     id="defs8" /><sodipodi:namedview
     pagecolor="#ffffff"
     bordercolor="#666666"
     borderopacity="1"
     objecttolerance="10"
     gridtolerance="10"
     guidetolerance="10"
     inkscape:pageopacity="0"
     inkscape:pageshadow="2"
     inkscape:window-width="1853"
     inkscape:window-height="1025"
     id="namedview6"
     showgrid="false"
     fit-margin-top="0"
     fit-margin-left="0"
     fit-margin-right="0"
     fit-margin-bottom="0"
     inkscape:zoom="1.888"
     inkscape:cx="39.9"
     inkscape:cy="27.5"
     inkscape:window-x="67"
     inkscape:window-y="27"
     inkscape:window-maximized="1"
     inkscape:current-layer="svg4" /><path
     d="M 39.9,0 C 17.9,0 0,17.8 0,39.9 0,61.9 17.8,79.8 39.9,79.8 61.9,79.8 79.8,62 79.8,39.9 79.7,17.8 61.9,0 39.9,0 Z m -23,45.7 c -7.5,0 -7.4,-11.6 0,-11.6 7.5,0.1 7.4,11.6 0,11.6 z m 23,0 c -7.5,0 -7.4,-11.6 0,-11.6 7.5,0.1 7.4,11.6 0,11.6 z m 23.2,0 c -7.5,0 -7.4,-11.6 0,-11.6 7.4,0.1 7.4,11.6 0,11.6 z"
     id="path2"
     inkscape:connector-curvature="0" /></svg>